<svg width="90" height="90" viewBox="0 0 90 90" fill="none" xmlns="http://www.w3.org/2000/svg">
<path d="M32.995 26.2422C37.0363 26.604 41.0476 27.2458 45 28.163C48.9524 27.2458 52.9637 26.604 57.005 26.2422V26.2422C69.01 26.2422 75.0125 35.6586 75.0125 48.7516C75.0125 65.327 61.5754 78.7641 45 78.7641C28.4246 78.7641 14.9875 65.327 14.9875 48.7516C14.9875 35.6549 20.99 26.2422 32.995 26.2422" stroke="#00AA33" stroke-width="3" stroke-linecap="round" stroke-linejoin="round"/>
<path fill-rule="evenodd" clip-rule="evenodd" d="M52.8445 26.2422H45.9341V19.3318C45.9331 16.19 47.1805 13.1766 49.4017 10.9546C51.623 8.7327 54.636 7.48438 57.7778 7.48438H64.692V14.3948C64.6899 20.9371 59.3868 26.2401 52.8445 26.2422V26.2422Z" stroke="#00AA33" stroke-width="3" stroke-linecap="round" stroke-linejoin="round"/>
<path d="M45.9341 26.2422V24.3665C45.9341 19.1866 41.7351 14.9875 36.5552 14.9875H34.6795" stroke="#00AA33" stroke-width="3" stroke-linecap="round" stroke-linejoin="round"/>
</svg>
