<svg width="90" height="90" viewBox="0 0 90 90" fill="none" xmlns="http://www.w3.org/2000/svg">
<path d="M43.1242 71.2609C25.5128 71.2609 11.2359 56.9841 11.2359 39.3727C11.2359 21.7612 25.5128 7.48438 43.1242 7.48438" stroke="#00AA33" stroke-width="3" stroke-linecap="round" stroke-linejoin="round"/>
<path d="M13.0517 28.7408H73.1892" stroke="#00AA33" stroke-width="3" stroke-linecap="round" stroke-linejoin="round"/>
<path d="M13.0554 50.0008H46.6657" stroke="#00AA33" stroke-width="3" stroke-linecap="round" stroke-linejoin="round"/>
<path d="M49.6182 11.236C48.2768 8.91832 45.802 7.49121 43.1242 7.49121C40.4464 7.49121 37.9716 8.91832 36.6303 11.236C26.3893 28.596 26.3893 50.1494 36.6303 67.5094C37.9744 69.8251 40.4467 71.2534 43.1242 71.2609" stroke="#00AA33" stroke-width="3" stroke-linecap="round" stroke-linejoin="round"/>
<path fill-rule="evenodd" clip-rule="evenodd" d="M60.0062 65.6673V54.3788C60.0062 51.2709 62.5257 48.7515 65.6336 48.7515C68.7415 48.7515 71.2609 51.2709 71.2609 54.3788V65.6673C74.4905 68.0894 75.8078 72.3065 74.5312 76.1363C73.2546 79.9661 69.6706 82.5493 65.6336 82.5493C61.5966 82.5493 58.0126 79.9661 56.736 76.1363C55.4594 72.3065 56.7767 68.0894 60.0062 65.6673Z" stroke="#00AA33" stroke-width="3" stroke-linecap="round" stroke-linejoin="round"/>
<path d="M74.915 37.4969C73.9374 20.6528 59.9967 7.4918 43.1242 7.48438" stroke="#00AA33" stroke-width="3" stroke-linecap="round" stroke-linejoin="round"/>
<path d="M49.6182 11.2358C54.3375 19.2042 56.9578 28.2398 57.2338 37.4968" stroke="#00AA33" stroke-width="3" stroke-linecap="round" stroke-linejoin="round"/>
</svg>
