<svg width="90" height="90" viewBox="0 0 90 90" fill="none" xmlns="http://www.w3.org/2000/svg">
<path d="M7.5 45H13.275" stroke="#00AA33" stroke-width="3" stroke-linecap="round" stroke-linejoin="round"/>
<path d="M77.025 45H82.5" stroke="#00AA33" stroke-width="3" stroke-linecap="round" stroke-linejoin="round"/>
<path d="M18.4875 71.5125L22.575 67.425" stroke="#00AA33" stroke-width="3" stroke-linecap="round" stroke-linejoin="round"/>
<path d="M67.65 22.35L71.5125 18.4875" stroke="#00AA33" stroke-width="3" stroke-linecap="round" stroke-linejoin="round"/>
<path d="M45 82.5001V76.7251" stroke="#00AA33" stroke-width="3" stroke-linecap="round" stroke-linejoin="round"/>
<path d="M45 12.975V7.5" stroke="#00AA33" stroke-width="3" stroke-linecap="round" stroke-linejoin="round"/>
<path d="M71.5125 71.5125L67.425 67.425" stroke="#00AA33" stroke-width="3" stroke-linecap="round" stroke-linejoin="round"/>
<path d="M22.35 22.35L18.4875 18.4875" stroke="#00AA33" stroke-width="3" stroke-linecap="round" stroke-linejoin="round"/>
<path fill-rule="evenodd" clip-rule="evenodd" d="M46.3162 36.2288L45 37.6275L43.6838 36.2288C40.7963 33.1613 36.0075 32.91 32.8125 35.655V35.655C29.55 38.46 29.16 43.3238 31.845 46.6913C35.685 51.5063 40.0875 56.2575 45 60C50.0362 56.1675 54.5325 51.27 58.44 46.3313C60.975 43.125 60.4575 38.4713 57.3562 35.805L57.2137 35.6813C53.9962 32.91 49.2037 33.1613 46.3162 36.2288V36.2288Z" stroke="#00AA33" stroke-width="3" stroke-linecap="round" stroke-linejoin="round"/>
</svg>
