<svg width="90" height="90" viewBox="0 0 90 90" fill="none" xmlns="http://www.w3.org/2000/svg">
<path d="M56.2547 78.764H66.4364C70.5803 78.764 73.9396 75.4047 73.9396 71.2608V14.9874C73.9396 12.9155 72.2599 11.2358 70.188 11.2358H63.2214C61.1494 11.2358 59.4698 12.9155 59.4698 14.9874V23.6385" stroke="#00AA33" stroke-width="3" stroke-linecap="round" stroke-linejoin="round"/>
<path fill-rule="evenodd" clip-rule="evenodd" d="M32.9462 48.9465C25.0013 49.0741 18.6276 55.551 18.6276 63.497C18.6276 71.4429 25.0013 77.9198 32.9462 78.0474C44.8012 78.0474 47.7086 63.4913 54.5027 59.6235C49.4399 52.8199 41.4263 48.8508 32.9462 48.9465Z" stroke="#00AA33" stroke-width="3" stroke-linecap="round" stroke-linejoin="round"/>
<path d="M34.702 61.9121C26.5654 63.2739 19.3949 68.0388 14.9875 75.0126" stroke="#00AA33" stroke-width="3" stroke-linecap="round" stroke-linejoin="round"/>
<path d="M11.236 40.1753L40.123 15.415C42.9308 13.0134 47.0692 13.0134 49.8771 15.415L78.7641 40.1753" stroke="#00AA33" stroke-width="3" stroke-linecap="round" stroke-linejoin="round"/>
</svg>
