<svg width="90" height="90" viewBox="0 0 90 90" fill="none" xmlns="http://www.w3.org/2000/svg">
<path d="M11.25 45V45C11.25 54.105 18.63 61.485 27.735 61.485V61.485C35.6137 61.485 42.4237 55.9725 44.0625 48.2662L46.4062 37.2525C47.775 30.8363 53.4413 26.25 60 26.25V26.25C70.3537 26.25 78.75 34.6463 78.75 45V45" stroke="#00AA33" stroke-width="3" stroke-linecap="round" stroke-linejoin="round"/>
<path d="M28.1175 44.0625C27.6 44.0625 27.18 44.4825 27.1838 45C27.1838 45.5175 27.6038 45.9375 28.1213 45.9375C28.6388 45.9375 29.0588 45.5175 29.0588 45C29.0588 44.4825 28.6388 44.0625 28.1175 44.0625" stroke="#00AA33" stroke-width="3" stroke-linecap="round" stroke-linejoin="round"/>
<path d="M61.8675 44.0625C61.35 44.0625 60.93 44.4825 60.9338 45C60.9338 45.5175 61.3538 45.9375 61.8713 45.9375C62.3888 45.9375 62.8088 45.5175 62.8088 45C62.8088 44.4825 62.3888 44.0625 61.8675 44.0625" stroke="#00AA33" stroke-width="3" stroke-linecap="round" stroke-linejoin="round"/>
<path d="M68.865 21.1352C82.0452 34.3154 82.0452 55.6847 68.865 68.8648C55.6848 82.045 34.3155 82.045 21.1354 68.8648C7.95516 55.6846 7.95516 34.3153 21.1354 21.1352C34.3156 7.95495 55.6849 7.95495 68.865 21.1352" stroke="#00AA33" stroke-width="3"/>
</svg>
